<?xml version="1.0" standalone="no"?>
<!DOCTYPE svg PUBLIC "-//W3C//DTD SVG 20010904//EN"
 "http://www.w3.org/TR/2001/REC-SVG-20010904/DTD/svg10.dtd">
<svg version="1.0" xmlns="http://www.w3.org/2000/svg"
 width="5000.000000pt" height="1315.000000pt" viewBox="0 0 5000.000000 1315.000000"
 preserveAspectRatio="xMidYMid meet">

<g transform="translate(0.000000,1315.000000) scale(0.100000,-0.100000)"
fill="#ffffff" stroke="none">
<path d="M820 6585 l0 -5745 24175 0 24175 0 0 5745 0 5745 -24175 0 -24175 0
0 -5745z m15790 175 l0 -4710 -295 0 -295 0 0 4710 0 4710 295 0 295 0 0
-4710z m-9782 2763 c27 -71 350 -911 718 -1867 367 -957 670 -1734 671 -1729
2 6 325 845 717 1865 l714 1853 786 3 c749 2 786 1 786 -16 0 -20 566 -6354
574 -6414 l4 -38 -739 0 c-683 0 -739 1 -739 17 0 9 -67 861 -150 1894 -82
1032 -150 1887 -150 1899 0 16 -5 21 -22 18 -21 -3 -83 -176 -683 -1895 l-660
-1893 -441 0 -440 0 -660 1893 c-576 1649 -663 1892 -681 1895 -18 3 -21 -4
-27 -60 -10 -97 -296 -3717 -296 -3744 l0 -24 -740 0 -740 0 6 43 c6 49 574
6398 574 6415 0 9 192 12 784 12 l784 0 50 -127z m20772 -1098 c195 -437 357
-795 360 -795 3 0 165 357 361 793 l356 792 176 3 177 2 0 -1020 0 -1020 -165
0 -165 0 -2 694 -3 695 -311 -692 -311 -692 -114 -2 -114 -3 -310 698 -310
697 -3 -697 -2 -698 -165 0 -165 0 0 1020 0 1020 178 0 177 0 355 -795z m2212
77 l3 -717 34 -69 c95 -193 313 -290 543 -242 187 40 320 168 357 344 7 36 11
270 11 727 l0 675 165 0 166 0 -3 -757 c-3 -753 -3 -758 -25 -816 -77 -201
-207 -336 -408 -424 -94 -41 -199 -64 -322 -70 -408 -22 -741 185 -840 522
-15 54 -17 131 -21 803 l-3 742 170 0 170 0 3 -718z m2618 -36 l565 -753 3
753 2 754 165 0 165 0 0 -1020 0 -1020 -168 0 -168 0 -559 752 -560 752 -3
-752 -2 -752 -170 0 -170 0 0 1020 0 1020 168 0 167 0 565 -754z m2545 -166
c182 -503 348 -961 368 -1018 l37 -102 -181 2 -181 3 -72 210 -71 210 -419 0
-420 0 -70 -212 -71 -213 -182 0 -183 0 15 38 c11 27 415 1145 720 1990 3 10
47 12 192 10 l187 -3 331 -915z m996 540 c133 -209 245 -380 248 -380 3 0 116
171 250 380 l244 380 193 0 193 0 -354 -535 -355 -534 0 -486 0 -485 -170 0
-170 0 0 480 0 480 -348 527 c-192 291 -352 534 -356 541 -6 9 34 12 188 12
l194 0 243 -380z m2519 230 l0 -150 -417 -2 -418 -3 0 -280 0 -280 363 -3 362
-2 0 -155 0 -155 -365 0 -365 0 0 -280 0 -280 420 0 420 0 0 -150 0 -150 -585
0 -585 0 0 1020 0 1020 585 0 585 0 0 -150z m1345 130 c103 -26 197 -80 270
-154 73 -74 106 -128 140 -231 70 -208 27 -422 -115 -578 -62 -67 -153 -127
-235 -153 -27 -9 -51 -18 -53 -19 -2 -1 125 -195 280 -431 156 -236 287 -435
292 -441 6 -10 -33 -13 -181 -13 l-188 1 -266 422 -266 422 -146 3 -147 3 0
-426 0 -425 -165 0 -165 0 0 1020 0 1020 433 0 c401 0 440 -2 512 -20z m-7750
-3650 c249 -79 428 -260 507 -510 20 -65 23 -95 22 -220 0 -128 -3 -154 -26
-222 -73 -218 -229 -386 -438 -471 -108 -44 -149 -51 -285 -51 -108 0 -143 4
-205 23 -259 80 -441 263 -521 521 -19 61 -23 99 -24 200 0 151 11 203 75 336
100 207 290 359 515 410 91 21 291 12 380 -16z m1708 14 c146 -33 308 -128
399 -236 53 -63 88 -113 88 -125 0 -4 -30 -24 -66 -43 -63 -33 -67 -34 -78
-16 -106 173 -294 276 -503 276 -174 0 -308 -54 -428 -175 -184 -184 -225
-449 -106 -691 142 -287 504 -407 796 -263 149 73 267 217 309 377 l14 52
-294 0 -294 0 0 75 0 75 381 0 380 0 -6 -72 c-11 -119 -31 -201 -70 -284 -83
-180 -239 -328 -416 -394 -222 -82 -460 -60 -666 61 -80 48 -202 171 -251 254
-174 295 -135 662 95 906 117 123 249 195 428 233 52 10 222 5 288 -10z m4492
-14 c249 -79 428 -260 507 -510 20 -65 23 -95 22 -220 0 -128 -3 -154 -26
-222 -73 -218 -229 -386 -438 -471 -108 -44 -149 -51 -285 -51 -108 0 -143 4
-205 23 -259 80 -441 263 -521 521 -19 61 -23 99 -24 200 0 151 11 203 75 336
100 207 290 359 515 410 91 21 291 12 380 -16z m1330 15 c32 -9 84 -29 114
-45 59 -32 141 -100 141 -118 0 -6 -25 -32 -55 -58 l-56 -47 -37 36 c-20 20
-63 48 -95 63 -53 24 -68 26 -151 22 -78 -3 -99 -8 -140 -32 -117 -69 -138
-220 -43 -323 42 -46 127 -91 337 -182 248 -107 352 -270 310 -483 -37 -190
-186 -309 -405 -325 -193 -13 -372 68 -472 215 -24 35 -43 69 -43 75 0 7 31
29 68 50 61 35 68 37 77 21 88 -151 195 -211 354 -202 170 11 271 102 271 246
0 57 -23 109 -68 155 -49 50 -96 77 -268 152 -169 74 -225 108 -289 176 -53
57 -74 101 -85 179 -16 115 20 236 95 319 38 42 132 96 191 110 62 14 185 12
249 -4z m-11575 -720 c142 -391 261 -721 264 -733 8 -23 7 -23 -79 -20 l-87 3
-58 165 -57 165 -330 3 -329 2 -60 -170 -59 -170 -87 0 -88 0 19 48 c10 26
130 357 266 735 l249 688 89 -3 90 -3 257 -710z m1015 700 c199 -42 393 -191
489 -375 63 -121 81 -198 80 -350 0 -117 -4 -145 -26 -212 -40 -121 -92 -204
-187 -299 -95 -95 -171 -142 -296 -185 -78 -27 -87 -28 -352 -32 l-273 -4 0
736 0 736 248 0 c179 0 266 -4 317 -15z m1089 -607 c120 -343 221 -626 225
-630 3 -3 105 277 226 623 l220 629 87 0 87 0 -38 -107 c-22 -60 -134 -371
-251 -693 -117 -322 -219 -604 -227 -627 l-15 -43 -88 0 c-87 0 -88 0 -98 28
-5 15 -107 297 -227 627 -119 330 -234 648 -256 708 l-38 107 87 0 88 0 218
-622z m5085 595 c6 -16 123 -338 260 -718 137 -379 252 -698 256 -708 7 -16 1
-18 -80 -15 l-88 3 -22 60 c-12 33 -39 108 -59 168 l-38 107 -328 0 -328 0
-38 -107 c-20 -60 -47 -135 -59 -168 l-22 -60 -88 -3 c-81 -3 -87 -1 -80 15 4
10 121 333 260 718 139 385 257 708 260 718 6 14 21 17 95 17 86 0 88 0 99
-27z m1264 11 c93 -20 237 -91 308 -151 120 -103 209 -242 245 -385 28 -108
26 -279 -5 -378 -85 -275 -293 -468 -567 -525 -53 -11 -138 -15 -309 -15
l-235 0 0 735 0 735 246 0 c186 0 262 -4 317 -16z"/>
<path d="M34301 8387 c-85 -254 -156 -468 -159 -474 -3 -10 63 -13 312 -13
246 0 316 3 316 12 0 17 -300 921 -309 930 -3 4 -76 -201 -160 -455z"/>
<path d="M39220 8621 l0 -291 258 0 c232 0 261 2 300 20 107 48 162 126 170
241 9 129 -48 233 -156 286 l-57 28 -257 3 -258 3 0 -290z"/>
<path d="M31713 5405 c-166 -46 -309 -165 -381 -315 -22 -47 -45 -112 -51
-144 -58 -319 129 -618 434 -696 144 -37 278 -23 415 42 155 74 272 219 316
389 23 88 15 260 -16 346 -58 165 -197 305 -363 363 -81 29 -276 37 -354 15z"/>
<path d="M37913 5405 c-166 -46 -309 -165 -381 -315 -22 -47 -45 -112 -51
-144 -58 -319 129 -618 434 -696 144 -37 278 -23 415 42 155 74 272 219 316
389 23 88 15 260 -16 346 -58 165 -197 305 -363 363 -81 29 -276 37 -354 15z"/>
<path d="M27678 5330 c-8 -25 -70 -201 -137 -391 -66 -190 -121 -349 -121
-352 0 -4 122 -7 270 -7 220 0 270 2 270 14 0 7 -58 179 -128 382 -71 203
-131 376 -134 384 -3 9 -11 -4 -20 -30z"/>
<path d="M28650 4831 l0 -583 183 4 c152 4 193 8 248 26 142 47 266 155 329
287 45 95 60 159 60 263 -1 269 -168 488 -425 557 -37 10 -125 18 -227 22
l-168 6 0 -582z"/>
<path d="M34992 4977 c-73 -210 -132 -385 -132 -389 0 -5 122 -8 270 -8 149 0
270 3 270 8 1 14 -264 772 -269 772 -3 0 -66 -172 -139 -383z"/>
<path d="M36088 5405 c-5 -5 -8 -266 -8 -582 l0 -573 163 0 c182 0 252 12 356
62 91 43 206 159 250 251 160 337 -13 728 -364 821 -65 18 -385 34 -397 21z"/>
</g>
</svg>
